<?xml version="1.0" standalone="no"?>
<!DOCTYPE svg PUBLIC "-//W3C//DTD SVG 20010904//EN"
 "http://www.w3.org/TR/2001/REC-SVG-20010904/DTD/svg10.dtd">
<svg version="1.0" xmlns="http://www.w3.org/2000/svg"
 width="640.000000pt" height="640.000000pt" viewBox="0 0 640.000000 640.000000"
 preserveAspectRatio="xMidYMid meet">
<metadata>
Created by potrace 1.14, written by Peter Selinger 2001-2017
</metadata>
<g transform="translate(0.000000,640.000000) scale(0.100000,-0.100000)"
fill="#000000" stroke="none">
<path d="M3514 5741 c-29 -18 -59 -72 -69 -126 -2 -11 -4 -21 -5 -22 -2 -2 -3
-6 -4 -10 -6 -22 -29 -104 -41 -143 -35 -116 -57 -192 -59 -203 -1 -7 -13 -45
-25 -86 -13 -41 -24 -81 -27 -90 -2 -9 -17 -61 -33 -116 -16 -55 -44 -149 -61
-210 -17 -60 -33 -117 -37 -125 -3 -8 -7 -20 -8 -25 -2 -6 -30 -107 -65 -225
-34 -118 -81 -284 -106 -368 -24 -85 -46 -157 -48 -161 -3 -4 -7 -18 -10 -32
-8 -40 -13 -57 -66 -234 -28 -93 -53 -178 -55 -189 -2 -10 -12 -44 -21 -75
-10 -31 -18 -58 -19 -61 -1 -3 -7 -25 -14 -50 -7 -25 -15 -52 -17 -60 -1 -8
-12 -46 -24 -85 -12 -38 -33 -110 -46 -160 -14 -49 -29 -99 -33 -110 -10 -22
-36 -117 -34 -125 0 -3 -4 -16 -9 -30 -5 -14 -12 -36 -14 -49 -3 -14 -8 -29
-12 -35 -3 -6 -7 -15 -8 -21 -2 -13 -33 -123 -44 -155 -4 -14 -13 -45 -20 -70
-7 -25 -19 -65 -27 -90 -8 -25 -16 -52 -18 -60 -2 -8 -17 -64 -35 -125 -18
-60 -33 -114 -35 -120 -1 -5 -5 -17 -8 -25 -3 -8 -20 -67 -37 -130 -17 -63
-34 -122 -37 -130 -3 -8 -7 -20 -8 -27 -5 -20 -56 -197 -62 -213 -7 -17 -10
-27 -17 -55 -3 -11 -26 -92 -51 -180 -59 -203 -58 -200 -43 -241 16 -45 51
-66 168 -98 133 -38 231 -66 260 -77 14 -5 36 -12 50 -15 39 -8 55 -12 58 -14
2 -3 4 -3 47 -14 17 -5 51 -15 76 -23 85 -27 147 -1 173 70 9 23 50 159 91
302 73 250 80 274 89 313 3 9 14 46 25 81 12 35 23 74 26 85 5 25 12 51 105
366 97 332 120 412 125 431 2 9 20 72 40 139 20 67 38 130 40 139 4 15 45 156
110 376 15 50 44 151 65 225 22 74 46 158 55 185 9 28 16 52 16 55 0 3 9 37
21 75 12 39 22 72 23 75 10 45 29 117 34 125 3 6 6 15 8 20 7 33 35 132 40
145 3 8 7 20 9 25 1 6 12 44 24 85 22 77 33 116 49 173 5 17 30 104 56 192 26
88 48 165 50 170 1 6 5 17 8 25 3 8 20 67 37 130 17 63 34 122 37 130 3 8 7
20 8 27 5 20 56 197 62 213 8 21 11 31 17 61 3 14 12 45 21 68 8 23 15 45 15
49 0 4 8 30 16 57 49 159 57 203 42 240 -18 45 -44 63 -122 86 -39 11 -100 30
-136 41 -36 11 -74 21 -85 24 -11 2 -49 13 -85 23 -219 66 -232 70 -285 77
-29 3 -49 -1 -71 -15z"/>
<path d="M1514 4660 c-11 -4 -47 -33 -78 -64 -32 -31 -60 -56 -62 -56 -2 0
-21 -17 -42 -37 -41 -42 -175 -168 -331 -313 -56 -52 -124 -115 -150 -140 -26
-25 -108 -101 -181 -170 -74 -69 -153 -143 -176 -165 -37 -34 -90 -84 -304
-285 -20 -19 -64 -60 -97 -91 -34 -31 -68 -68 -78 -82 -22 -34 -17 -84 12
-124 21 -29 46 -54 164 -164 41 -38 263 -246 319 -299 21 -19 88 -82 150 -140
62 -58 134 -125 160 -150 26 -25 96 -90 155 -145 59 -55 128 -120 154 -145 44
-42 208 -195 324 -302 53 -50 96 -66 143 -54 27 7 43 22 189 178 44 47 130
138 190 202 127 136 145 163 139 214 -4 39 -52 90 -204 222 -35 30 -74 65 -87
78 -13 13 -23 21 -23 18 0 -2 -12 8 -28 22 -23 23 -116 106 -196 175 -22 20
-108 95 -185 162 -25 22 -58 52 -74 67 -16 15 -47 42 -69 60 -23 18 -47 39
-55 46 -14 14 -18 42 -5 42 7 0 49 35 135 115 27 25 50 45 52 45 3 0 17 12 33
28 15 15 57 52 91 82 106 91 154 134 176 155 12 11 51 45 86 75 35 30 71 62
79 70 9 8 47 42 85 75 38 33 80 71 94 84 14 13 33 28 41 35 34 24 57 71 55
108 -4 52 10 35 -271 333 -62 66 -134 143 -161 171 -26 29 -58 57 -70 63 -25
13 -69 13 -99 1z"/>
<path d="M4790 4663 c-16 -7 -74 -64 -220 -222 -52 -56 -130 -139 -173 -184
-43 -45 -85 -92 -93 -103 -18 -26 -24 -81 -13 -110 7 -19 99 -105 353 -328 93
-81 263 -231 306 -270 19 -17 89 -79 156 -137 132 -116 129 -109 64 -163 -35
-29 -144 -124 -184 -161 -12 -11 -46 -40 -75 -65 -29 -25 -70 -61 -91 -80 -21
-19 -51 -46 -67 -60 -16 -14 -62 -54 -102 -90 -41 -36 -83 -73 -95 -83 -90
-78 -145 -126 -171 -151 -16 -15 -41 -38 -55 -50 -53 -45 -59 -114 -17 -169
14 -18 54 -62 89 -98 35 -37 110 -117 168 -179 217 -233 214 -230 272 -230 43
0 65 16 229 171 74 70 150 142 170 160 20 19 89 84 154 144 64 61 133 125 154
144 32 30 234 219 345 324 60 56 255 239 296 277 189 175 210 200 210 249 0
40 -22 74 -85 133 -32 29 -79 73 -105 98 -40 38 -197 186 -314 295 -18 17 -88
82 -156 145 -67 63 -151 142 -186 175 -34 33 -108 103 -164 155 -57 52 -126
117 -154 143 -28 27 -87 82 -131 124 -44 41 -102 96 -129 121 -27 26 -61 55
-75 64 -25 17 -81 22 -111 11z"/>
</g>
</svg>
